<?xml version="1.0" encoding="UTF-8"?>
<svg version="1.1" xmlns="http://www.w3.org/2000/svg" width="590" height="300">
<path d="M0 0 C194.7 0 389.4 0 590 0 C590 99 590 198 590 300 C395.3 300 200.6 300 0 300 C0 201 0 102 0 0 Z " fill="#FEFEFE" transform="translate(0,0)"/>
<path d="M0 0 C3.5005236 1.51693865 7.02008788 2.98733219 10.53881836 4.46142578 C13.61743538 5.75427404 16.68948242 7.0623322 19.76000977 8.37426758 C26.26755319 11.02888503 34.4053498 11.55521881 41.0859375 9.18896484 C47.82945527 5.21169161 50.71503026 -0.87400143 53.52734375 -7.90478516 C54.51734375 -7.90478516 55.50734375 -7.90478516 56.52734375 -7.90478516 C56.52734375 25.75521484 56.52734375 59.41521484 56.52734375 94.09521484 C55.53734375 94.09521484 54.54734375 94.09521484 53.52734375 94.09521484 C53.30820312 93.14904297 53.0890625 92.20287109 52.86328125 91.22802734 C44.96635635 57.92100807 29.66781691 26.73918117 0.08984375 7.40771484 C-15.98357768 -2.41493159 -34.0310114 -8.99367405 -53.11328125 -5.40869141 C-58.47188257 -3.59862951 -62.0340898 -0.73680621 -64.59375 4.30224609 C-69.88548403 17.23113473 -69.88766831 32.37459687 -70.58203125 46.19677734 C-70.64483906 47.41721678 -70.64483906 47.41721678 -70.70891571 48.66231155 C-71.81958648 70.8845692 -71.77661204 93.122759 -71.73339844 115.3671875 C-71.72196537 121.29972255 -71.7288145 127.23207892 -71.74027252 133.164608 C-71.81299734 164.1650867 -71.81299734 164.1650867 -70.58203125 195.13427734 C-70.50454651 196.39364105 -70.42706177 197.65300476 -70.347229 198.95053101 C-69.47193734 219.27470918 -69.47193734 219.27470918 -59.53515625 236.09521484 C-53.78144302 240.85375302 -48.38148278 241.44663657 -41.16015625 241.72021484 C-39.9062207 241.77822266 -39.9062207 241.77822266 -38.62695312 241.83740234 C-36.57586366 241.93116643 -34.5242911 242.01425729 -32.47265625 242.09521484 C-32.53320568 227.57845593 -32.61091252 213.06187572 -32.70837116 198.54531574 C-32.75332043 191.80488461 -32.792737 185.06450621 -32.8190918 178.32397461 C-32.84453519 171.8205286 -32.88544586 165.31728701 -32.93584251 158.81398582 C-32.9525436 156.3312897 -32.96403763 153.84855297 -32.97027016 151.36580849 C-32.97987572 147.89165201 -33.00789376 144.41810009 -33.0402832 140.9440918 C-33.03884811 139.91478546 -33.03741302 138.88547913 -33.03593445 137.82498169 C-33.08217479 130.94679189 -33.08217479 130.94679189 -36.47265625 125.09521484 C-41.17597854 122.87613993 -46.22854028 122.49947938 -51.34765625 121.97021484 C-52.52328125 121.84066406 -52.52328125 121.84066406 -53.72265625 121.70849609 C-55.63868784 121.49819994 -57.55559285 121.2958874 -59.47265625 121.09521484 C-59.47265625 119.77521484 -59.47265625 118.45521484 -59.47265625 117.09521484 C-9.97265625 117.09521484 39.52734375 117.09521484 90.52734375 117.09521484 C90.52734375 118.41521484 90.52734375 119.73521484 90.52734375 121.09521484 C89.79620361 121.14009033 89.06506348 121.18496582 88.31176758 121.23120117 C84.9867574 121.44302054 81.66346485 121.67515293 78.33984375 121.90771484 C77.18935547 121.97796875 76.03886719 122.04822266 74.85351562 122.12060547 C73.74169922 122.20117188 72.62988281 122.28173828 71.484375 122.36474609 C69.9526062 122.46686401 69.9526062 122.46686401 68.38989258 122.57104492 C65.17665678 123.15943019 63.17760975 124.21172199 60.52734375 126.09521484 C56.53906466 131.87821953 57.36154279 139.87638111 57.32202148 146.59863281 C57.31212189 147.64314102 57.30222229 148.68764923 57.29202271 149.7638092 C57.26051807 153.20498412 57.23569395 156.64617282 57.2109375 160.08740234 C57.19035845 162.47779696 57.16936172 164.86818801 57.14796448 167.25857544 C57.09284212 173.54180004 57.04338951 179.82505694 56.99511719 186.1083374 C56.94483028 192.5232632 56.88918177 198.93814225 56.83398438 205.35302734 C56.72652312 217.93371628 56.62486938 230.51444517 56.52734375 243.09521484 C55.53734375 243.09521484 54.54734375 243.09521484 53.52734375 243.09521484 C53.15222656 242.27537109 52.77710938 241.45552734 52.390625 240.61083984 C51.87886719 239.53318359 51.36710938 238.45552734 50.83984375 237.34521484 C50.34097656 236.27787109 49.84210938 235.21052734 49.328125 234.11083984 C46.74475292 229.78467228 43.24160414 226.89877659 38.52734375 225.09521484 C25.92956327 222.91207675 15.75332285 228.13253007 4.52734375 233.09521484 C-25.12290809 246.05953186 -55.14959773 251.23559512 -86.34765625 239.84521484 C-88.40332513 238.96039508 -90.44474068 238.04191385 -92.47265625 237.09521484 C-93.07706543 236.82757324 -93.68147461 236.55993164 -94.30419922 236.28417969 C-105.49476535 231.31090676 -114.97771354 224.78664888 -124.47265625 217.09521484 C-125.30925781 216.42103516 -126.14585938 215.74685547 -127.0078125 215.05224609 C-150.86771132 194.96211934 -166.70045691 162.86970227 -170.47265625 132.09521484 C-171.32933676 114.96987605 -171.75229922 97.55731474 -166.47265625 81.09521484 C-166.11042969 79.90025391 -165.74820313 78.70529297 -165.375 77.47412109 C-158.83961392 57.60211665 -147.91986613 41.06969516 -133.47265625 26.09521484 C-132.74433594 25.30373047 -132.01601562 24.51224609 -131.265625 23.69677734 C-97.06817017 -12.46750699 -44.2517451 -19.1984763 0 0 Z " fill="#5B84BA" transform="translate(217.47265625,24.90478515625)"/>
<path d="M0 0 C0.91661315 -0.00170885 1.8332263 -0.0034177 2.77761561 -0.00517833 C5.83770982 -0.00846292 8.89758297 0.00251351 11.95765686 0.01345825 C14.15570572 0.01402259 16.35375495 0.01370537 18.55180359 0.01257324 C24.51197588 0.01199961 30.4720676 0.02375578 36.43222117 0.03772116 C42.66356037 0.05022663 48.89490142 0.05139887 55.12625122 0.05377197 C65.58292508 0.05928119 76.03957138 0.07177224 86.49623108 0.08963013 C97.26445877 0.10800093 108.0326784 0.12212861 118.80091858 0.13064575 C119.47194577 0.13118175 120.14297296 0.13171774 120.83433431 0.13226998 C126.67172189 0.13689596 132.50910969 0.14120142 138.34649754 0.14547539 C163.4617848 0.16427932 188.57699381 0.20412472 213.692276 0.24050903 C213.692276 34.23050903 213.692276 68.22050903 213.692276 103.24050903 C212.702276 103.24050903 211.712276 103.24050903 210.692276 103.24050903 C210.60590881 102.27113403 210.51954163 101.30175903 210.43055725 100.30300903 C207.59052904 71.92061126 194.50879745 48.35773642 174.692276 28.24050903 C174.03872131 27.57406372 173.38516663 26.90761841 172.71180725 26.22097778 C154.82215729 9.32307814 131.2881026 6.38558418 107.692276 4.24050903 C107.692276 43.51050903 107.692276 82.78050903 107.692276 123.24050903 C126.76406571 120.69760374 141.34996945 116.78728681 153.85243225 101.83035278 C163.55811006 88.16822033 167.96931892 71.69860653 169.692276 55.24050903 C171.012276 55.24050903 172.332276 55.24050903 173.692276 55.24050903 C173.692276 101.44050903 173.692276 147.64050903 173.692276 195.24050903 C172.372276 195.24050903 171.052276 195.24050903 169.692276 195.24050903 C169.59430725 194.09195435 169.4963385 192.94339966 169.395401 191.76004028 C167.4152162 170.45002827 160.49099955 151.44430781 143.692276 137.24050903 C134.72771346 130.53321044 124.51937819 127.56273023 113.44960022 126.69290161 C112.37088654 126.60696243 111.29217285 126.52102325 110.18077087 126.43247986 C109.35956757 126.36912949 108.53836426 126.30577911 107.692276 126.24050903 C107.8000726 139.48011203 107.91276424 152.7196636 108.03161526 165.95917225 C108.08665724 172.10754002 108.14004609 178.25591267 108.18959045 184.40432739 C108.2375117 190.34362865 108.28986227 196.28287619 108.34521675 202.22211266 C108.36551524 204.48216086 108.38424788 206.74222371 108.40135002 209.00229836 C108.42567336 212.18046963 108.45568634 215.35854207 108.48695374 218.53665161 C108.4927092 219.46022964 108.49846466 220.38380768 108.50439453 221.33537292 C107.93880855 234.16582557 107.93880855 234.16582557 112.692276 245.24050903 C118.93540692 248.09109305 124.37850677 248.75469368 131.192276 248.92800903 C132.1100885 248.96216919 133.027901 248.99632935 133.973526 249.03152466 C136.2129869 249.11317167 138.4520975 249.18258442 140.692276 249.24050903 C140.692276 250.23050903 140.692276 251.22050903 140.692276 252.24050903 C88.222276 252.24050903 35.752276 252.24050903 -18.307724 252.24050903 C-18.307724 251.25050903 -18.307724 250.26050903 -18.307724 249.24050903 C-17.46963196 249.21863525 -17.46963196 249.21863525 -16.61460876 249.19631958 C-14.03252348 249.12090105 -11.45160216 249.02456023 -8.870224 248.92800903 C-7.99172791 248.90545044 -7.11323181 248.88289185 -6.20811462 248.85964966 C2.67592206 248.57921703 2.67592206 248.57921703 10.692276 245.24050903 C13.627775 239.70536574 14.12025554 235.24117021 14.06408691 229.0423584 C14.06791148 228.13744018 14.07173604 227.23252197 14.0756765 226.30018198 C14.08493456 223.2793185 14.0729871 220.25891656 14.06117249 217.23806763 C14.06364125 215.06783356 14.06748044 212.89760068 14.07258606 210.72737122 C14.08091646 206.05984904 14.08012299 201.3924489 14.07240105 196.72492599 C14.06081569 189.34665024 14.07298186 181.96853144 14.08901978 174.590271 C14.12520602 156.26786235 14.13144087 137.94545749 14.12892151 119.62301636 C14.12721172 105.37613695 14.13428353 91.12938569 14.16890007 76.88254225 C14.18572038 69.54538866 14.18387713 62.20854735 14.16807735 54.87139487 C14.16229191 50.3117756 14.17299945 45.75230535 14.18832397 41.19271278 C14.19205876 39.07590749 14.18891757 36.95907742 14.17845345 34.84229469 C14.16513413 31.95604854 14.1762482 29.07089404 14.19348145 26.18469238 C14.18367467 25.34413185 14.17386789 24.50357133 14.16376394 23.63753927 C14.21247386 19.70182147 14.43338208 17.67373571 16.49644947 14.22144985 C19.67078148 11.35776105 22.69470471 11.53498834 26.76551819 11.58108521 C27.57564865 11.5706015 28.38577911 11.5601178 29.22045898 11.54931641 C31.89374532 11.52055337 34.56573757 11.5268591 37.239151 11.53347778 C39.0943311 11.52036345 40.94949691 11.50506005 42.80464172 11.48765564 C47.6840313 11.44776157 52.56304774 11.43761236 57.44258118 11.43362427 C62.42306367 11.42430113 67.40332616 11.38689274 72.38368225 11.35183716 C82.15320318 11.28721646 91.92256006 11.25401313 101.692276 11.24050903 C101.692276 9.92050903 101.692276 8.60050903 101.692276 7.24050903 C87.35787562 7.17031113 73.02350205 7.11766787 58.68896484 7.08507252 C52.03261022 7.06942714 45.37640192 7.04820921 38.72010803 7.01419067 C32.29455938 6.9815575 25.86912184 6.96364751 19.4434967 6.9558773 C16.99393465 6.95034095 14.54437856 6.93952983 12.09486389 6.92331886 C8.65975375 6.90149253 5.22510075 6.89854436 1.78993225 6.89993286 C0.78076248 6.88914703 -0.22840729 6.87836121 -1.26815796 6.86724854 C-7.774784 6.89564449 -14.19470214 7.31556558 -19.182724 12.00222778 C-22.12483604 17.03855152 -23.07342993 20.40200133 -22.307724 26.24050903 C-21.02938702 29.26814924 -19.72756309 30.86002986 -17.307724 33.05300903 C-12.282729 35.04206955 -6.20707081 35.32968164 -1.09288025 33.40847778 C0.99791231 32.20733922 0.99791231 32.20733922 2.692276 29.24050903 C3.22883181 26.17366898 3.22393141 23.30860376 2.692276 20.24050903 C-0.03764476 16.8487893 -1.62134662 16.32334768 -5.932724 15.80300903 C-9.18751703 16.0036973 -9.18751703 16.0036973 -11.245224 17.36550903 C-12.76926963 20.05500133 -12.57129707 22.20941876 -12.307724 25.24050903 C-11.24127285 26.53684524 -11.24127285 26.53684524 -8.745224 26.30300903 C-7.5386615 26.27207153 -7.5386615 26.27207153 -6.307724 26.24050903 C-5.977724 25.58050903 -5.647724 24.92050903 -5.307724 24.24050903 C-6.627724 23.91050903 -7.947724 23.58050903 -9.307724 23.24050903 C-8.977724 21.59050903 -8.647724 19.94050903 -8.307724 18.24050903 C-2.90442427 18.72080234 -2.90442427 18.72080234 -0.370224 20.92800903 C1.13895796 24.21269918 0.89425315 25.84669119 -0.307724 29.24050903 C-3.58197299 32.28088309 -5.38288237 33.22428374 -9.870224 33.30300903 C-13.91190087 32.05376346 -15.63130356 30.46795721 -18.307724 27.24050903 C-19.8624909 24.13097524 -19.59416837 21.67784143 -19.307724 18.24050903 C-17.05566545 13.90321109 -14.8691216 11.10653532 -10.307724 9.24050903 C-4.10071493 8.5282293 0.62716944 9.44167911 5.692276 13.24050903 C8.76009099 16.64440487 9.61749754 19.65162869 10.192276 24.17800903 C9.92559306 28.75606616 8.36936791 32.53692483 5.692276 36.24050903 C0.10759581 40.77806169 -4.69190851 41.61087699 -11.71006775 41.51785278 C-17.33709878 40.91707203 -21.55469083 38.40630561 -25.245224 34.17800903 C-29.17792896 28.57688379 -28.88899608 22.87038046 -28.307724 16.24050903 C-26.77828486 10.36629376 -23.38771158 7.00058234 -18.60069275 3.46707153 C-12.54064229 0.22540911 -6.7198465 -0.04620333 0 0 Z " fill="#4FAEC5" transform="translate(329.30772399902344,15.759490966796875)"/>
<path d="M0 0 C3.53571429 0.53571429 3.53571429 0.53571429 5 2 C5.10017963 4.90551765 5.13438581 7.7873411 5.12698364 10.69335938 C5.12854363 11.61639107 5.13010362 12.53942276 5.13171089 13.49042511 C5.1357251 16.60821593 5.13252962 19.72595875 5.12939453 22.84375 C5.13074839 25.06884795 5.13252823 27.29394567 5.13470459 29.51904297 C5.13928081 35.5808466 5.13748859 41.64263331 5.1343255 47.70443726 C5.13180287 54.03277636 5.13413917 60.36111397 5.13571167 66.68945312 C5.13765053 78.0008837 5.13453273 89.31230563 5.12945233 100.62373447 C5.12498429 110.88978515 5.12576022 121.15582453 5.13037109 131.421875 C5.13571678 143.32962974 5.13771774 155.23737761 5.13475883 167.14513397 C5.13319561 173.45361096 5.13300352 179.76208015 5.13629532 186.07055664 C5.13917286 191.99986551 5.1372005 197.92915293 5.13140106 203.85845947 C5.13007283 206.04144251 5.13046863 208.22442733 5.13266373 210.40740967 C5.13537278 213.37384481 5.13199713 216.34021001 5.12698364 219.30664062 C5.13032973 220.62027966 5.13032973 220.62027966 5.13374341 221.96045685 C5.11414982 227.88585018 5.11414982 227.88585018 4 229 C1.5 229.125 1.5 229.125 -1 229 C-2.86711316 227.13288684 -2.12823678 224.45019822 -2.1384055 221.96511894 C-2.1368569 221.09004171 -2.1353083 220.21496448 -2.13371277 219.31336975 C-2.13597833 218.39104362 -2.13824388 217.4687175 -2.14057809 216.51844209 C-2.14694892 213.40298867 -2.14608676 210.28757839 -2.14526367 207.17211914 C-2.14825324 204.94864342 -2.15165529 202.72516823 -2.15544128 200.50169373 C-2.16430593 194.44395784 -2.16662042 188.38623606 -2.16725707 182.32849431 C-2.16820406 177.28092944 -2.1718799 172.2333679 -2.17542917 167.18580431 C-2.18311667 155.96358139 -2.18609694 144.74136518 -2.18542381 133.51914043 C-2.18538386 132.84517028 -2.1853439 132.17120013 -2.18530273 131.47680664 C-2.18526185 130.80201782 -2.18522097 130.12722901 -2.18517885 129.43199205 C-2.18477226 118.49202921 -2.19434396 107.55210076 -2.2084411 96.61214788 C-2.2227869 85.39108168 -2.22952891 74.17003178 -2.22884732 62.94895452 C-2.22859163 56.64434518 -2.23148175 50.33977475 -2.24202538 44.03517342 C-2.25166599 38.10830707 -2.25181345 32.18151715 -2.24450874 26.25464821 C-2.24345786 24.07369628 -2.24585534 21.8927397 -2.2518692 19.71179581 C-2.25952136 16.7456436 -2.25498967 13.77975981 -2.24723816 10.81361389 C-2.25238172 9.94076738 -2.25752529 9.06792087 -2.26282471 8.16862446 C-2.22827117 2.22827117 -2.22827117 2.22827117 0 0 Z " fill="#FEFEFE" transform="translate(425,33)"/>
<path d="M0 0 C3.53571429 0.53571429 3.53571429 0.53571429 5 2 C5.10017963 4.90551765 5.13438581 7.7873411 5.12698364 10.69335938 C5.12854363 11.61639107 5.13010362 12.53942276 5.13171089 13.49042511 C5.1357251 16.60821593 5.13252962 19.72595875 5.12939453 22.84375 C5.13074839 25.06884795 5.13252823 27.29394567 5.13470459 29.51904297 C5.13928081 35.5808466 5.13748859 41.64263331 5.1343255 47.70443726 C5.13180287 54.03277636 5.13413917 60.36111397 5.13571167 66.68945312 C5.13765053 78.0008837 5.13453273 89.31230563 5.12945233 100.62373447 C5.12498429 110.88978515 5.12576022 121.15582453 5.13037109 131.421875 C5.13571678 143.32962974 5.13771774 155.23737761 5.13475883 167.14513397 C5.13319561 173.45361096 5.13300352 179.76208015 5.13629532 186.07055664 C5.13917286 191.99986551 5.1372005 197.92915293 5.13140106 203.85845947 C5.13007283 206.04144251 5.13046863 208.22442733 5.13266373 210.40740967 C5.13537278 213.37384481 5.13199713 216.34021001 5.12698364 219.30664062 C5.13032973 220.62027966 5.13032973 220.62027966 5.13374341 221.96045685 C5.11414982 227.88585018 5.11414982 227.88585018 4 229 C1.5 229.125 1.5 229.125 -1 229 C-2.86711316 227.13288684 -2.12823678 224.45019822 -2.1384055 221.96511894 C-2.1368569 221.09004171 -2.1353083 220.21496448 -2.13371277 219.31336975 C-2.13597833 218.39104362 -2.13824388 217.4687175 -2.14057809 216.51844209 C-2.14694892 213.40298867 -2.14608676 210.28757839 -2.14526367 207.17211914 C-2.14825324 204.94864342 -2.15165529 202.72516823 -2.15544128 200.50169373 C-2.16430593 194.44395784 -2.16662042 188.38623606 -2.16725707 182.32849431 C-2.16820406 177.28092944 -2.1718799 172.2333679 -2.17542917 167.18580431 C-2.18311667 155.96358139 -2.18609694 144.74136518 -2.18542381 133.51914043 C-2.18538386 132.84517028 -2.1853439 132.17120013 -2.18530273 131.47680664 C-2.18526185 130.80201782 -2.18522097 130.12722901 -2.18517885 129.43199205 C-2.18477226 118.49202921 -2.19434396 107.55210076 -2.2084411 96.61214788 C-2.2227869 85.39108168 -2.22952891 74.17003178 -2.22884732 62.94895452 C-2.22859163 56.64434518 -2.23148175 50.33977475 -2.24202538 44.03517342 C-2.25166599 38.10830707 -2.25181345 32.18151715 -2.24450874 26.25464821 C-2.24345786 24.07369628 -2.24585534 21.8927397 -2.2518692 19.71179581 C-2.25952136 16.7456436 -2.25498967 13.77975981 -2.24723816 10.81361389 C-2.25238172 9.94076738 -2.25752529 9.06792087 -2.26282471 8.16862446 C-2.22827117 2.22827117 -2.22827117 2.22827117 0 0 Z " fill="#FEFEFE" transform="translate(382,33)"/>
<path d="M0 0 C1.32 0.66 2.64 1.32 4 2 C4.02279018 30.77404052 4.04049808 59.54807999 4.05106533 88.32212776 C4.0523161 91.71564703 4.05361042 95.1091663 4.05493164 98.50268555 C4.05519395 99.17830217 4.05545626 99.8539188 4.05572652 100.55000866 C4.06008325 111.50363169 4.06797081 122.45724949 4.0771528 133.41086941 C4.08648927 144.642067 4.0919807 155.87326197 4.09408849 167.10446364 C4.09539603 173.41631144 4.09848455 179.72814737 4.10573006 186.03999138 C4.11248635 191.9733874 4.11461776 197.90676659 4.11310768 203.84016609 C4.11338419 206.02476213 4.11539161 208.20935869 4.11920547 210.39395142 C4.12413662 213.36262588 4.12300044 216.33123573 4.12025452 219.2999115 C4.12316736 220.17635297 4.1260802 221.05279445 4.12908131 221.95579475 C4.11412121 227.88587879 4.11412121 227.88587879 3 229 C1.33382885 229.04063832 -0.33388095 229.042721 -2 229 C-3.66993817 225.66012366 -3.14410703 221.90378892 -3.14044189 218.2310791 C-3.14341302 217.3119821 -3.14638414 216.3928851 -3.1494453 215.44593668 C-3.15815925 212.34741226 -3.1596428 209.24892635 -3.16113281 206.15039062 C-3.16575898 203.93661923 -3.17078337 201.72284864 -3.17617798 199.50907898 C-3.18932106 193.48239612 -3.19575034 187.45572442 -3.20018864 181.42902946 C-3.20311554 177.66840844 -3.20721955 173.9077905 -3.21169281 170.14717102 C-3.22380302 159.74154566 -3.23418529 149.33592247 -3.2375679 138.93029022 C-3.23778747 138.26415106 -3.23800703 137.59801189 -3.23823325 136.91168669 C-3.23845153 136.24393051 -3.23866981 135.57617433 -3.2388947 134.88818312 C-3.23933817 133.53499317 -3.23978474 132.18180323 -3.24023438 130.82861328 C-3.2404558 130.15738058 -3.24067723 129.48614788 -3.24090537 128.7945748 C-3.24485638 117.9096249 -3.26231977 107.02474183 -3.2855939 96.13981777 C-3.30927885 84.97296333 -3.32151014 73.80613329 -3.32293582 62.63925123 C-3.32398694 56.3659324 -3.32995996 50.09270783 -3.34775543 43.81941223 C-3.36415662 37.9228755 -3.36643056 32.0265047 -3.35761642 26.12995338 C-3.35684183 23.96028514 -3.36124377 21.79060826 -3.37107468 19.62096214 C-3.38366627 16.67008017 -3.3779877 13.71979744 -3.36749268 10.7689209 C-3.37554908 9.90064745 -3.38360548 9.03237401 -3.39190602 8.13778925 C-3.3719368 5.75441742 -3.3719368 5.75441742 -3 2 C-2.01 1.34 -1.02 0.68 0 0 Z " fill="#F7FBFC" transform="translate(397,33)"/>
<path d="M0 0 C1.32 0.66 2.64 1.32 4 2 C4.02279018 30.77404052 4.04049808 59.54807999 4.05106533 88.32212776 C4.0523161 91.71564703 4.05361042 95.1091663 4.05493164 98.50268555 C4.05519395 99.17830217 4.05545626 99.8539188 4.05572652 100.55000866 C4.06008325 111.50363169 4.06797081 122.45724949 4.0771528 133.41086941 C4.08648927 144.642067 4.0919807 155.87326197 4.09408849 167.10446364 C4.09539603 173.41631144 4.09848455 179.72814737 4.10573006 186.03999138 C4.11248635 191.9733874 4.11461776 197.90676659 4.11310768 203.84016609 C4.11338419 206.02476213 4.11539161 208.20935869 4.11920547 210.39395142 C4.12413662 213.36262588 4.12300044 216.33123573 4.12025452 219.2999115 C4.12316736 220.17635297 4.1260802 221.05279445 4.12908131 221.95579475 C4.11412121 227.88587879 4.11412121 227.88587879 3 229 C1.33382885 229.04063832 -0.33388095 229.042721 -2 229 C-3.66457918 225.67084164 -3.14411429 221.93637331 -3.14044189 218.27577209 C-3.14341302 217.36146421 -3.14638414 216.44715633 -3.1494453 215.50514215 C-3.15815918 212.4227712 -3.1596428 209.34043896 -3.16113281 206.25805664 C-3.16575902 204.05575985 -3.17078341 201.85346387 -3.17617798 199.65116882 C-3.18932146 193.65540958 -3.19575052 187.65966153 -3.20018864 181.66389012 C-3.20311572 177.92202238 -3.20721978 174.18015774 -3.21169281 170.43829155 C-3.22380355 160.08328056 -3.23418542 149.72827174 -3.2375679 139.37325382 C-3.23778747 138.71033383 -3.23800703 138.04741384 -3.23823325 137.36440536 C-3.23845153 136.69987959 -3.23866981 136.03535382 -3.2388947 135.3506909 C-3.23933817 134.00405761 -3.23978473 132.65742431 -3.24023438 131.31079102 C-3.2404558 130.64281124 -3.24067723 129.97483147 -3.24090537 129.28660988 C-3.24485536 118.45730085 -3.2623154 107.62805903 -3.2855939 96.79877598 C-3.30928679 85.68728568 -3.3215106 74.57582338 -3.32293582 63.46430677 C-3.3239865 57.22281391 -3.32995025 50.98141584 -3.34775543 44.73994637 C-3.36416875 38.87213344 -3.36642455 33.00448724 -3.35761642 27.13665962 C-3.35684247 24.97869929 -3.36123556 22.82073024 -3.37107468 20.66279221 C-3.38368615 17.72539683 -3.37797657 14.78860172 -3.36749268 11.85121155 C-3.37554908 10.98974189 -3.38360548 10.12827224 -3.39190602 9.24069744 C-3.34280833 3.39189637 -3.34280833 3.39189637 -1.47675395 1.25863451 C-0.98942515 0.84328512 -0.50209634 0.42793573 0 0 Z " fill="#F7FBFC" transform="translate(354,33)"/>
<path d="M0 0 C2.5 0.125 2.5 0.125 3.5 1.125 C3.60017267 4.01566031 3.63438663 6.88250381 3.62698364 9.77366638 C3.62932363 11.15103024 3.62932363 11.15103024 3.63171089 12.55621964 C3.63572511 15.65785703 3.63252961 18.75944616 3.62939453 21.86108398 C3.63074839 24.07470732 3.63252824 26.28833044 3.63470459 28.50195312 C3.63928097 34.53283318 3.63748846 40.56369622 3.6343255 46.5945766 C3.63180264 52.8917513 3.63413926 59.18892449 3.63571167 65.48609924 C3.6376506 76.74296886 3.6345327 87.99983143 3.62945233 99.25669939 C3.62498538 109.47069733 3.6257593 119.68468391 3.63037109 129.89868164 C3.63571849 141.74748193 3.63771674 153.5962767 3.63475883 165.44507843 C3.63319625 171.72172923 3.63300174 177.9983722 3.63629532 184.27502251 C3.63917497 190.17560738 3.63719659 196.0761707 3.63140106 201.97675323 C3.63007391 204.14802833 3.63046682 206.31930522 3.63266373 208.49057961 C3.63537701 211.44352791 3.63199185 214.39640619 3.62698364 217.34934998 C3.62921436 218.21830554 3.63144509 219.0872611 3.63374341 219.98254865 C3.61414991 225.89670017 3.61414991 225.89670017 2.5 228.125 C0.83388095 228.167721 -0.83382885 228.16563832 -2.5 228.125 C-4.36808518 226.25691482 -3.6255227 223.57152168 -3.63374341 221.08545685 C-3.63151268 220.20969749 -3.62928196 219.33393814 -3.62698364 218.43164062 C-3.62932363 217.04709309 -3.62932363 217.04709309 -3.63171089 215.63457489 C-3.6357251 212.51678407 -3.63252962 209.39904125 -3.62939453 206.28125 C-3.63074839 204.05615205 -3.63252823 201.83105433 -3.63470459 199.60595703 C-3.63928081 193.5441534 -3.63748859 187.48236669 -3.6343255 181.42056274 C-3.63180287 175.09222364 -3.63413917 168.76388603 -3.63571167 162.43554688 C-3.63765053 151.1241163 -3.63453273 139.81269437 -3.62945233 128.50126553 C-3.62498429 118.23521485 -3.62576022 107.96917547 -3.63037109 97.703125 C-3.63571678 85.79537026 -3.63771774 73.88762239 -3.63475883 61.97986603 C-3.63319561 55.67138904 -3.63300352 49.36291985 -3.63629532 43.05444336 C-3.63917286 37.12513449 -3.6372005 31.19584707 -3.63140106 25.26654053 C-3.63007283 23.08355749 -3.63046863 20.90057267 -3.63266373 18.71759033 C-3.63537278 15.75115519 -3.63199713 12.78478999 -3.62698364 9.81835938 C-3.62921436 8.94260002 -3.63144509 8.06684067 -3.63374341 7.16454315 C-3.61064927 0.18053246 -3.61064927 0.18053246 0 0 Z " fill="#F9FCFD" transform="translate(412.5,33.875)"/>
<path d="M0 0 C2.5 0.125 2.5 0.125 3.5 1.125 C3.60017267 4.01566031 3.63438663 6.88250381 3.62698364 9.77366638 C3.62932363 11.15103024 3.62932363 11.15103024 3.63171089 12.55621964 C3.63572511 15.65785703 3.63252961 18.75944616 3.62939453 21.86108398 C3.63074839 24.07470732 3.63252824 26.28833044 3.63470459 28.50195312 C3.63928097 34.53283318 3.63748846 40.56369622 3.6343255 46.5945766 C3.63180264 52.8917513 3.63413926 59.18892449 3.63571167 65.48609924 C3.6376506 76.74296886 3.6345327 87.99983143 3.62945233 99.25669939 C3.62498538 109.47069733 3.6257593 119.68468391 3.63037109 129.89868164 C3.63571849 141.74748193 3.63771674 153.5962767 3.63475883 165.44507843 C3.63319625 171.72172923 3.63300174 177.9983722 3.63629532 184.27502251 C3.63917497 190.17560738 3.63719659 196.0761707 3.63140106 201.97675323 C3.63007391 204.14802833 3.63046682 206.31930522 3.63266373 208.49057961 C3.63537701 211.44352791 3.63199185 214.39640619 3.62698364 217.34934998 C3.62921436 218.21830554 3.63144509 219.0872611 3.63374341 219.98254865 C3.61414991 225.89670017 3.61414991 225.89670017 2.5 228.125 C0.83388095 228.167721 -0.83382885 228.16563832 -2.5 228.125 C-4.36808518 226.25691482 -3.6255227 223.57152168 -3.63374341 221.08545685 C-3.63151268 220.20969749 -3.62928196 219.33393814 -3.62698364 218.43164062 C-3.62932363 217.04709309 -3.62932363 217.04709309 -3.63171089 215.63457489 C-3.6357251 212.51678407 -3.63252962 209.39904125 -3.62939453 206.28125 C-3.63074839 204.05615205 -3.63252823 201.83105433 -3.63470459 199.60595703 C-3.63928081 193.5441534 -3.63748859 187.48236669 -3.6343255 181.42056274 C-3.63180287 175.09222364 -3.63413917 168.76388603 -3.63571167 162.43554688 C-3.63765053 151.1241163 -3.63453273 139.81269437 -3.62945233 128.50126553 C-3.62498429 118.23521485 -3.62576022 107.96917547 -3.63037109 97.703125 C-3.63571678 85.79537026 -3.63771774 73.88762239 -3.63475883 61.97986603 C-3.63319561 55.67138904 -3.63300352 49.36291985 -3.63629532 43.05444336 C-3.63917286 37.12513449 -3.6372005 31.19584707 -3.63140106 25.26654053 C-3.63007283 23.08355749 -3.63046863 20.90057267 -3.63266373 18.71759033 C-3.63537278 15.75115519 -3.63199713 12.78478999 -3.62698364 9.81835938 C-3.62921436 8.94260002 -3.63144509 8.06684067 -3.63374341 7.16454315 C-3.61064927 0.18053246 -3.61064927 0.18053246 0 0 Z " fill="#F9FCFD" transform="translate(369.5,33.875)"/>
</svg>
