<?xml version="1.0" encoding="utf-8"?>
<!-- Generator: Adobe Illustrator 22.0.0, SVG Export Plug-In . SVG Version: 6.00 Build 0)  -->
<svg version="1.1" id="Layer_1" xmlns="http://www.w3.org/2000/svg" xmlns:xlink="http://www.w3.org/1999/xlink" x="0px" y="0px"
	 viewBox="0 0 382.1 283.5" style="enable-background:new 0 0 382.1 283.5;" xml:space="preserve">
<style type="text/css">
	.st0{fill:url(#SVGID_1_);}
	.st1{fill:#F2F2F2;}
</style>
<title>Artboard 4 copy</title>
<linearGradient id="SVGID_1_" gradientUnits="userSpaceOnUse" x1="-22.1379" y1="611.447" x2="404.2379" y2="788.0529" gradientTransform="matrix(1 0 0 1 0 -558)">
	<stop  offset="7.000000e-02" style="stop-color:#646EB2"/>
	<stop  offset="1" style="stop-color:#44BBC5"/>
</linearGradient>
<rect y="0" class="st0" width="382.1" height="283.5"/>
<g>
	<path class="st1" d="M109.8,121.6l2.7,0.2l5.8,0.4c6.7,0.4,7.6,2.5,7.6,15v55.9c-3.4,0.2-4.5,0.4-6.5,0.4
		c-8.5,0-13.5-4.5-15.3-13.5c-1.3-7.4-2-17.1-2.2-38.6c-0.2-6.5-0.2-12.6-0.2-18.6c0-10.5,0.2-20.6,0.7-34.8
		c0.4-19.7,1.3-28.5,3.4-34.5c2-5.8,6.3-8.1,14.6-8.1c13.5,0,27.4,7.4,38.8,20.9c9.9,11.7,14.1,21.3,17.7,39.3h2v-61h-2
		c-1.6,7.6-6.1,11.7-12.6,11.7c-4.3,0-7.2-0.9-16.4-5.2c-12.1-5.6-21.1-7.8-31.4-7.8c-39.5,0-73.1,34.5-73.1,75.4
		c0,41.5,33.7,77.2,72.7,77.2c10.5,0,20.4-2.7,35.2-9.2c6.3-2.9,9.4-3.8,12.8-3.8c6.7,0,10.5,3.4,12.8,11.4h2v-57.2
		c0-12.8,1.3-14.8,10.1-15l6.9-0.4h2.9v-2h-89L109.8,121.6z M208.1,44.7h-0.6c-5.6,0.2-12.1,3.4-13,11.9c-0.3,3,0.7,6.1,2.7,8.3
		c2.4,2.5,5.6,3.9,9.1,4c4.8,0,10.6-2.6,11.1-9.9v-0.4c-0.4-6.4-5.4-8.7-9.8-8.7c-3.7,0-7.4,3.4-7.5,6.8c-0.2,1.9,0.5,3.8,1.7,5.1
		c2.3,2.5,6.1,2.6,8.6,0.4c0.8-0.8,1.3-1.9,1.3-3c0-2.8-2.5-3.9-3.9-4c-0.9-0.1-1.8,0.5-1.9,1.4c-0.1,0.9,0.5,1.8,1.4,1.9
		c0,0,1,0.2,1,0.7c0,0.2-0.1,0.5-0.3,0.7c-0.5,0.4-1.2,0.6-1.8,0.6h-0.1c-0.7,0-1.4-0.4-1.9-0.9c-0.7-0.7-1-1.7-0.9-2.6v-0.1
		c0-1.3,2-3.6,4.1-3.6c1.6,0,4.9,0.4,6.1,3.7c0.4,1.2,0.4,2.5,0.1,3.8c-1.3,4.5-5.9,4.9-7.4,4.9c-2.5-0.1-4.8-1.1-6.6-2.9
		c-1.4-1.6-2.1-3.6-1.9-5.7c0.9-8.2,8-8.9,10.2-8.9H271c0.9,0.1,1.6,0.9,1.5,1.8c-0.1,0.8-0.7,1.5-1.5,1.5h-46.4
		c-2.4,0-4.3,1.9-4.3,4.3V173c0,8.5-0.2,12.6-0.9,14.8c-0.9,2.9-3.4,4-9.2,4.5l-3.9,0.1l-3.9,0.1h-1.8v1.8h94.9v-1.8h-1.8l-7.9-0.2
		c-5.8-0.4-8.3-1.6-9.2-4.5c-0.7-2.2-0.9-6.3-0.9-14.8v-53.6c13.5,0,21.1,3.8,28.7,14.4c5.6,8.1,7.6,14.6,8.1,26.2h2V77h-2
		c-1.6,24.7-15.3,40.4-35.4,40.4h-1.3V47c13.7,0.5,18.6,1.3,26,4.7c6.6,2.8,12.4,7.1,17,12.6c9.3,9.7,15.4,22,17.5,35.2
		c0.2,1.3,0.5,3.4,0.7,6.3h1.8v-61L208.1,44.7z M228.9,188.9c0,1.2-1,2.1-2.1,2.1c-0.6,0-1.1-0.2-1.5-0.6c-0.4-0.4-0.6-0.9-0.6-1.5
		v-132c0.1-1.2,1.1-2.1,2.3-2c1.1,0.1,1.9,0.9,2,2L228.9,188.9z M237.4,188.9c0,1.2-1,2.1-2.1,2.1l0,0c-0.6,0-1.1-0.2-1.5-0.6
		c-0.4-0.4-0.6-0.9-0.6-1.5v-132c0-1.2,1-2.1,2.1-2.1c1.2,0,2.1,1,2.1,2.1V188.9z M245.9,188.9c0,1.2-1,2.1-2.1,2.1l0,0
		c-0.6,0-1.1-0.2-1.5-0.6c-0.4-0.4-0.6-0.9-0.6-1.5v-132c0-1.2,1-2.1,2.1-2.1c1.2,0,2.1,1,2.1,2.1V188.9z M254.4,188.9
		c0,1.2-0.9,2.1-2.1,2.1c-0.6,0-1.1-0.2-1.5-0.6c-0.4-0.4-0.6-0.9-0.6-1.5v-132c0-1.2,1-2.1,2.1-2.1c1.2,0,2.1,1,2.1,2.1V188.9z
		 M263,188.9c0,1.2-1,2.1-2.1,2.1c-0.6,0-1.1-0.2-1.5-0.6c-0.4-0.4-0.6-0.9-0.6-1.5v-132c0-1.2,1-2.1,2.1-2.1s2.1,1,2.1,2.1l0,0
		V188.9z M271.5,188.9c0,1.2-1,2.1-2.1,2.1c-0.6,0-1.1-0.2-1.5-0.6c-0.4-0.4-0.6-0.9-0.6-1.5v-132c0.1-1.2,1.1-2.1,2.3-2
		c1.1,0.1,1.9,0.9,2,2L271.5,188.9z"/>
	<g>
		<path class="st1" d="M60.2,233.9H47.8L45,240h-1.6l9.8-21.4h1.6l9.8,21.4h-1.7L60.2,233.9z M59.6,232.6L54,220.3l-5.6,12.3H59.6z"
			/>
		<path class="st1" d="M79.6,224l-7.2,16h-1.6l-7.2-16h1.6l6.3,14.3l6.4-14.3H79.6z"/>
		<path class="st1" d="M97.1,224l-7.2,16h-1.6l-7.2-16h1.6l6.3,14.3l6.4-14.3H97.1z"/>
		<path class="st1" d="M97.4,239.7c-0.2-0.2-0.4-0.6-0.4-0.9c0-0.3,0.1-0.7,0.4-0.9c0.2-0.2,0.6-0.4,0.9-0.4s0.7,0.1,0.9,0.4
			c0.3,0.2,0.4,0.6,0.4,0.9c0,0.4-0.1,0.7-0.4,0.9c-0.2,0.2-0.6,0.4-0.9,0.4C98,240.1,97.7,239.9,97.4,239.7z"/>
		<path class="st1" d="M128.5,229.4h1.5v8c-1,0.9-2.1,1.6-3.4,2c-1.4,0.5-2.8,0.7-4.2,0.7c-2,0-4-0.4-5.7-1.4c-1.7-0.9-3-2.2-4-3.9
			c-1.9-3.5-1.9-7.7,0-11.1c1-1.6,2.3-3,4-3.9c1.8-1,3.7-1.4,5.8-1.4c1.5,0,2.9,0.2,4.3,0.8c1.3,0.5,2.4,1.2,3.4,2.2l-1,1
			c-0.8-0.9-1.9-1.5-3-1.9c-1.2-0.4-2.4-0.6-3.7-0.6c-1.7,0-3.5,0.4-5,1.2c-1.4,0.8-2.6,2-3.5,3.4c-1.7,3-1.7,6.6,0,9.6
			c0.8,1.4,2,2.6,3.5,3.4c1.5,0.9,3.3,1.3,5,1.2c2.2,0.1,4.3-0.6,6.1-1.9L128.5,229.4z"/>
		<path class="st1" d="M135.3,219.8c-0.2-0.2-0.4-0.5-0.4-0.9c0-0.7,0.6-1.3,1.3-1.3c0.3,0,0.7,0.1,0.9,0.4c0.2,0.2,0.4,0.5,0.4,0.9
			c0,0.7-0.6,1.3-1.3,1.2C135.8,220.1,135.5,220,135.3,219.8z M135.4,224h1.5v16h-1.5V224z"/>
		<path class="st1" d="M156.3,224v16h-1.5v-3.4c-0.5,1.1-1.3,2-2.4,2.6c-1.1,0.6-2.4,1-3.7,0.9c-3.4,0.3-6.3-2.1-6.7-5.5
			c0-0.4,0-0.8,0-1.3V224h1.5v9.2c-0.1,1.5,0.4,3,1.4,4.1c1,1,2.4,1.5,3.9,1.4c1.6,0.1,3.1-0.5,4.3-1.7c1.1-1.2,1.7-2.9,1.6-4.5V224
			H156.3z"/>
		<path class="st1" d="M161.7,217.3h1.5V240h-1.5V217.3z"/>
		<path class="st1" d="M168.6,219.8c-0.2-0.2-0.4-0.5-0.4-0.9c0-0.3,0.1-0.6,0.4-0.9c0.2-0.2,0.5-0.4,0.9-0.4c0.3,0,0.7,0.1,0.9,0.4
			c0.2,0.2,0.4,0.5,0.4,0.9c0,0.3-0.1,0.7-0.4,0.9c-0.2,0.2-0.6,0.4-0.9,0.4C169.1,220.1,168.8,220,168.6,219.8z M168.7,224h1.5v16
			h-1.5V224z"/>
		<path class="st1" d="M178.2,239c-1.2-0.7-2.2-1.7-2.9-2.9c-1.4-2.6-1.4-5.7,0-8.3c0.7-1.2,1.7-2.2,2.9-2.9c2.5-1.4,5.6-1.4,8.1,0
			c1.2,0.7,2.2,1.7,2.9,2.9c1.4,2.6,1.4,5.7,0,8.3c-0.7,1.2-1.7,2.2-2.9,2.9C183.8,240.4,180.7,240.4,178.2,239z M185.6,237.8
			c1-0.6,1.8-1.4,2.3-2.4c1.1-2.2,1.1-4.8,0-7c-0.5-1-1.3-1.8-2.3-2.4c-2-1.1-4.5-1.1-6.6,0c-1,0.6-1.8,1.4-2.3,2.4
			c-1.1,2.2-1.1,4.8,0,7c0.5,1,1.3,1.8,2.3,2.4C181,238.9,183.5,238.9,185.6,237.8z"/>
		<path class="st1" d="M205.2,220v9.1h11.4v1.4h-11.4v9.5h-1.6v-21.4h14.3v1.4H205.2z"/>
		<path class="st1" d="M230.3,225.4c1.1,1.2,1.7,2.8,1.6,4.4V240h-1.5v-2.8c-0.5,0.9-1.3,1.7-2.2,2.2c-1.1,0.5-2.3,0.8-3.5,0.8
			c-1.5,0.1-3-0.4-4.2-1.3c-1-0.8-1.6-2-1.5-3.3c0-1.2,0.5-2.4,1.4-3.2c1.3-0.9,2.9-1.4,4.5-1.2h5.5v-1.3c0.1-1.2-0.4-2.5-1.2-3.4
			c-1-0.8-2.2-1.2-3.5-1.2c-1,0-2,0.2-3,0.6c-0.9,0.3-1.7,0.8-2.5,1.5l-0.8-1.1c0.8-0.7,1.8-1.3,2.9-1.7c1.1-0.4,2.3-0.6,3.5-0.6
			C227.4,223.8,229,224.3,230.3,225.4z M228.3,237.9c1-0.6,1.7-1.6,2.1-2.7v-3H225c-1.2-0.1-2.4,0.2-3.4,0.9
			c-0.7,0.6-1.1,1.4-1.1,2.4s0.4,1.9,1.2,2.5c1,0.7,2.1,1,3.3,0.9C226.1,238.8,227.3,238.5,228.3,237.9L228.3,237.9z"/>
		<path class="st1" d="M241,224.8c1.2-0.6,2.5-1,3.8-0.9v1.5h-0.4c-1.6-0.1-3.1,0.5-4.2,1.7c-1.1,1.3-1.6,3-1.5,4.6v8.3h-1.5v-16
			h1.5v3.5C239.2,226.4,240,225.4,241,224.8z"/>
		<path class="st1" d="M252,224.8c1.2-0.6,2.5-1,3.8-0.9v1.5h-0.4c-1.6-0.1-3.1,0.5-4.1,1.7c-1.1,1.3-1.6,3-1.5,4.6v8.3h-1.5v-16
			h1.5v3.5C250.2,226.4,251,225.4,252,224.8z"/>
		<path class="st1" d="M261.1,239c-1.2-0.7-2.2-1.7-2.9-2.9c-1.4-2.6-1.4-5.7,0-8.3c0.7-1.2,1.7-2.2,2.9-2.9c2.5-1.4,5.6-1.4,8.1,0
			c1.2,0.7,2.2,1.7,2.9,2.9c1.4,2.6,1.4,5.7,0,8.3c-0.7,1.2-1.7,2.2-2.9,2.9C266.7,240.4,263.7,240.4,261.1,239z M268.5,237.8
			c1-0.6,1.8-1.4,2.3-2.4c1.1-2.2,1.1-4.8,0-7c-0.5-1-1.3-1.8-2.3-2.4c-2-1.1-4.5-1.1-6.6,0c-1,0.6-1.8,1.4-2.3,2.4
			c-1.1,2.2-1.1,4.8,0,7c0.5,1,1.3,1.8,2.3,2.4C263.9,238.9,266.4,238.9,268.5,237.8z"/>
		<path class="st1" d="M289.8,225.6c1.2,1.4,1.9,3.2,1.7,5v9.4H290v-9.2c0.1-1.5-0.4-3-1.4-4.1c-1-1-2.4-1.5-3.8-1.4
			c-1.6-0.1-3.3,0.5-4.4,1.7s-1.7,2.9-1.6,4.5v8.5h-1.5v-16h1.5v3.4c0.5-1.1,1.4-2,2.5-2.6c1.2-0.7,2.5-1,3.9-1
			C286.8,223.7,288.5,224.4,289.8,225.6z"/>
		<path class="st1" d="M306.9,225.4c1.1,1.2,1.7,2.8,1.6,4.4V240H307v-2.8c-0.5,0.9-1.3,1.7-2.2,2.2c-1.1,0.5-2.3,0.8-3.5,0.8
			c-1.5,0.1-3-0.4-4.2-1.3c-1-0.8-1.6-2-1.5-3.3c0-1.2,0.5-2.4,1.4-3.2c1.3-0.9,2.9-1.4,4.5-1.2h5.5v-1.3c0.1-1.2-0.4-2.5-1.2-3.4
			c-1-0.8-2.2-1.2-3.5-1.2c-1,0-2,0.2-3,0.6c-0.9,0.3-1.7,0.8-2.5,1.5l-0.8-1.1c0.8-0.7,1.8-1.3,2.9-1.7s2.3-0.6,3.5-0.6
			C304,223.8,305.6,224.3,306.9,225.4z M304.9,237.9c1-0.7,1.7-1.6,2.1-2.7v-3h-5.5c-1.2-0.1-2.4,0.2-3.4,0.9
			c-0.7,0.6-1.1,1.4-1,2.4c0,1,0.4,1.9,1.2,2.5c1,0.7,2.1,1,3.3,0.9C302.7,238.9,303.8,238.5,304.9,237.9L304.9,237.9z"/>
		<path class="st1" d="M321.6,238.9c-0.4,0.4-0.9,0.7-1.5,0.8c-0.6,0.2-1.2,0.3-1.8,0.3c-2.2,0.2-4.1-1.4-4.3-3.5c0-0.3,0-0.5,0-0.8
			v-10.4h-3V224h3v-3.5h1.5v3.5h5.1v1.3h-5.1v10.3c-0.1,0.9,0.2,1.7,0.8,2.4c0.6,0.6,1.4,0.9,2.2,0.8c0.9,0,1.8-0.3,2.5-0.9
			L321.6,238.9z"/>
		<path class="st1" d="M326.7,239c-1.2-0.7-2.2-1.7-2.9-2.9c-1.4-2.6-1.4-5.7,0-8.3c0.7-1.2,1.7-2.2,2.9-2.9c2.5-1.4,5.6-1.4,8.2,0
			c1.2,0.7,2.2,1.7,2.9,2.9c1.4,2.6,1.4,5.7,0,8.3c-0.7,1.2-1.7,2.2-2.9,2.9C332.4,240.4,329.3,240.4,326.7,239z M334.1,237.8
			c1-0.6,1.8-1.4,2.3-2.4c1.1-2.2,1.1-4.8,0-7c-0.5-1-1.3-1.8-2.3-2.4c-2-1.1-4.5-1.1-6.6,0c-1,0.6-1.8,1.4-2.3,2.4
			c-1.1,2.2-1.1,4.8,0,7c0.5,1,1.3,1.8,2.3,2.4C329.6,238.9,332.1,238.9,334.1,237.8z"/>
	</g>
</g>
</svg>
